<!DOCTYPE svg PUBLIC "-//W3C//DTD SVG 1.1//EN" "http://www.w3.org/Graphics/SVG/1.1/DTD/svg11.dtd">
<svg style="stroke-linecap:square;" xmlns="http://www.w3.org/2000/svg" xmlns:xlink="http://www.w3.org/1999/xlink" width="1558" height="506">
<defs><clipPath id="clip-0"><path d="M 0 0 L 1558 0 L 1558 506 L 0 506 L 0 0 M 0 0"/></clipPath>
<clipPath id="clip-1"><path d="M 1045.83 -141.83 L 1045.83 1416.17 L 539.83 1416.17 L 539.83 -141.83 L 1045.83 -141.83 M 1045.83 -141.83"/></clipPath>
<clipPath id="clip-2"><path d="M 273.5 218.5 L 273.5 1776.5 L -232.5 1776.5 L -232.5 218.5 L 273.5 218.5 M 273.5 218.5"/></clipPath>
<clipPath id="clip-3"><path d="M 79 52 L 79 440 L 1254 440 L 1254 52 M 79 52"/></clipPath>
</defs>
<rect x="0" y="0" width="1558" height="506" style="fill: rgb(255,255,255);fill-opacity: 1" transform="matrix(1,0,0,1,0,0)" clip-path="url(#clip-0)"/><g transform="matrix(1,0,0,1,0,0)"><text x="267" y="34.82" style="fill: rgb(75,75,109); font-family: Lucida Sans; font-size: 25px; font-weight: bold; " text-rendering="auto" clip-path="url(#clip-0)">[acaso, exacto, imposible, jam치s, nunca, posibilidad, posible, probable, probab...</text></g><rect x="1274" y="83.5" width="274" height="381" style="fill: rgb(255,255,255);fill-opacity: 1" transform="matrix(1,0,0,1,0,0)" clip-path="url(#clip-0)"/><g style="stroke-width: 1.0;stroke: rgb(192,192,192);stroke-opacity: 1; fill: none" transform="matrix(1,0,0,1,0,0)" clip-path="url(#clip-0)"><path d="M 1274 88.5 L 1274 459.5 C 1274 462.26 1276.24 464.5 1279 464.5 L 1543 464.5 C 1545.76 464.5 1548 462.26 1548 459.5 L 1548 88.5 C 1548 85.74 1545.76 83.5 1543 83.5 L 1279 83.5 C 1276.24 83.5 1274 85.74 1274 88.5 M 1274 88.5"/></g><g style="fill: rgb(255,0,0);fill-opacity: 1; stroke: none" transform="matrix(1,0,0,1,0,0)" clip-path="url(#clip-0)"><path d="M 1278 95 L 1284 95 L 1284 105 L 1278 105 L 1278 95 M 1278 95"/></g><g transform="matrix(1,0,0,1,0,0)"><text x="1288" y="106.55" style="fill: rgb(39,75,109); font-family: Lucida Sans; font-size: 20px; font-weight: bold; " text-rendering="auto" clip-path="url(#clip-0)">acaso</text></g><g style="fill: rgb(0,0,255);fill-opacity: 1; stroke: none" transform="matrix(1,0,0,1,0,0)" clip-path="url(#clip-0)"><path d="M 1278 124 L 1284 124 L 1284 134 L 1278 134 L 1278 124 M 1278 124"/></g><g transform="matrix(1,0,0,1,0,0)"><text x="1288" y="135.55" style="fill: rgb(39,75,109); font-family: Lucida Sans; font-size: 20px; font-weight: bold; " text-rendering="auto" clip-path="url(#clip-0)">exacto</text></g><g style="fill: rgb(0,205,0);fill-opacity: 1; stroke: none" transform="matrix(1,0,0,1,0,0)" clip-path="url(#clip-0)"><path d="M 1278 153 L 1284 153 L 1284 163 L 1278 163 L 1278 153 M 1278 153"/></g><g transform="matrix(1,0,0,1,0,0)"><text x="1288" y="164.55" style="fill: rgb(39,75,109); font-family: Lucida Sans; font-size: 20px; font-weight: bold; " text-rendering="auto" clip-path="url(#clip-0)">imposible</text></g><g style="fill: rgb(255,215,0);fill-opacity: 1; stroke: none" transform="matrix(1,0,0,1,0,0)" clip-path="url(#clip-0)"><path d="M 1278 182 L 1284 182 L 1284 192 L 1278 192 L 1278 182 M 1278 182"/></g><g transform="matrix(1,0,0,1,0,0)"><text x="1288" y="193.55" style="fill: rgb(39,75,109); font-family: Lucida Sans; font-size: 20px; font-weight: bold; " text-rendering="auto" clip-path="url(#clip-0)">jam치s</text></g><g style="fill: rgb(255,20,147);fill-opacity: 1; stroke: none" transform="matrix(1,0,0,1,0,0)" clip-path="url(#clip-0)"><path d="M 1278 211 L 1284 211 L 1284 221 L 1278 221 L 1278 211 M 1278 211"/></g><g transform="matrix(1,0,0,1,0,0)"><text x="1288" y="222.55" style="fill: rgb(39,75,109); font-family: Lucida Sans; font-size: 20px; font-weight: bold; " text-rendering="auto" clip-path="url(#clip-0)">nunca</text></g><g style="fill: rgb(178,34,34);fill-opacity: 1; stroke: none" transform="matrix(1,0,0,1,0,0)" clip-path="url(#clip-0)"><path d="M 1278 240 L 1284 240 L 1284 250 L 1278 250 L 1278 240 M 1278 240"/></g><g transform="matrix(1,0,0,1,0,0)"><text x="1288" y="251.55" style="fill: rgb(39,75,109); font-family: Lucida Sans; font-size: 20px; font-weight: bold; " text-rendering="auto" clip-path="url(#clip-0)">posibilidad</text></g><g style="fill: rgb(0,0,128);fill-opacity: 1; stroke: none" transform="matrix(1,0,0,1,0,0)" clip-path="url(#clip-0)"><path d="M 1278 269 L 1284 269 L 1284 279 L 1278 279 L 1278 269 M 1278 269"/></g><g transform="matrix(1,0,0,1,0,0)"><text x="1288" y="280.55" style="fill: rgb(39,75,109); font-family: Lucida Sans; font-size: 20px; font-weight: bold; " text-rendering="auto" clip-path="url(#clip-0)">posible</text></g><g style="fill: rgb(0,139,0);fill-opacity: 1; stroke: none" transform="matrix(1,0,0,1,0,0)" clip-path="url(#clip-0)"><path d="M 1278 298 L 1284 298 L 1284 308 L 1278 308 L 1278 298 M 1278 298"/></g><g transform="matrix(1,0,0,1,0,0)"><text x="1288" y="309.55" style="fill: rgb(39,75,109); font-family: Lucida Sans; font-size: 20px; font-weight: bold; " text-rendering="auto" clip-path="url(#clip-0)">probable</text></g><g style="fill: rgb(255,185,15);fill-opacity: 1; stroke: none" transform="matrix(1,0,0,1,0,0)" clip-path="url(#clip-0)"><path d="M 1278 327 L 1284 327 L 1284 337 L 1278 337 L 1278 327 M 1278 327"/></g><g transform="matrix(1,0,0,1,0,0)"><text x="1288" y="338.55" style="fill: rgb(39,75,109); font-family: Lucida Sans; font-size: 20px; font-weight: bold; " text-rendering="auto" clip-path="url(#clip-0)">probable|probablemente</text></g><g style="fill: rgb(255,0,255);fill-opacity: 1; stroke: none" transform="matrix(1,0,0,1,0,0)" clip-path="url(#clip-0)"><path d="M 1278 356 L 1284 356 L 1284 366 L 1278 366 L 1278 356 M 1278 356"/></g><g transform="matrix(1,0,0,1,0,0)"><text x="1288" y="367.55" style="fill: rgb(39,75,109); font-family: Lucida Sans; font-size: 20px; font-weight: bold; " text-rendering="auto" clip-path="url(#clip-0)">quiz치</text></g><g style="fill: rgb(0,191,255);fill-opacity: 1; stroke: none" transform="matrix(1,0,0,1,0,0)" clip-path="url(#clip-0)"><path d="M 1278 385 L 1284 385 L 1284 395 L 1278 395 L 1278 385 M 1278 385"/></g><g transform="matrix(1,0,0,1,0,0)"><text x="1288" y="396.55" style="fill: rgb(39,75,109); font-family: Lucida Sans; font-size: 20px; font-weight: bold; " text-rendering="auto" clip-path="url(#clip-0)">quiz치s</text></g><g style="fill: rgb(0,255,0);fill-opacity: 1; stroke: none" transform="matrix(1,0,0,1,0,0)" clip-path="url(#clip-0)"><path d="M 1278 414 L 1284 414 L 1284 424 L 1278 424 L 1278 414 M 1278 414"/></g><g transform="matrix(1,0,0,1,0,0)"><text x="1288" y="425.55" style="fill: rgb(39,75,109); font-family: Lucida Sans; font-size: 20px; font-weight: bold; " text-rendering="auto" clip-path="url(#clip-0)">seguro</text></g><g style="fill: rgb(255,255,0);fill-opacity: 1; stroke: none" transform="matrix(1,0,0,1,0,0)" clip-path="url(#clip-0)"><path d="M 1278 443 L 1284 443 L 1284 453 L 1278 453 L 1278 443 M 1278 443"/></g><g transform="matrix(1,0,0,1,0,0)"><text x="1288" y="454.55" style="fill: rgb(39,75,109); font-family: Lucida Sans; font-size: 20px; font-weight: bold; " text-rendering="auto" clip-path="url(#clip-0)">siempre</text></g><rect x="79" y="52" width="1175" height="388" style="fill: rgb(255,255,255);fill-opacity: 1" transform="matrix(1,0,0,1,0,0)" clip-path="url(#clip-0)"/><line x1="79" y1="440" x2="1254" y2="440" style="stroke-width: 0.5;stroke: rgb(192,208,224);stroke-opacity: 1;" transform="matrix(1,0,0,1,0,0)" clip-path="url(#clip-0)"/><g style="fill: rgb(102,102,102);fill-opacity: 1; stroke: none" transform="matrix(0,-1,1,0,141.83075,1045.83075)" clip-path="url(#clip-1)"><path d="M 584.64 460.28 L 584.64 445.83 L 593.74 445.83 L 593.74 447.81 L 587.64 447.81 L 587.64 452.2 L 592.64 452.2 L 592.64 454.2 L 587.64 454.2 L 587.64 460.28 L 584.64 460.28 M 584.64 460.28"/></g><line x1="1114.23" y1="445" x2="1114.23" y2="440" style="stroke-width: 0.5;stroke: rgb(192,208,224);stroke-opacity: 1;" transform="matrix(1,0,0,1,0,0)" clip-path="url(#clip-0)"/><g transform="matrix(1,0,0,1,0,0)"><text x="641.5" y="487.94" style="fill: rgb(77,117,158); font-family: Lucida Sans; font-size: 24px; font-weight: bold; " text-rendering="auto" clip-path="url(#clip-0)">Part</text></g><g transform="matrix(1,0,0,1,0,0)"><text x="47" y="408.76" style="fill: rgb(102,102,102); font-family: Lucida Sans; font-size: 20px; font-weight: bold; " text-rendering="auto" clip-path="url(#clip-0)">-5</text></g><g transform="matrix(1,0,0,1,0,0)"><text x="60" y="348.28" style="fill: rgb(102,102,102); font-family: Lucida Sans; font-size: 20px; font-weight: bold; " text-rendering="auto" clip-path="url(#clip-0)">0</text></g><g transform="matrix(1,0,0,1,0,0)"><text x="60" y="287.79" style="fill: rgb(102,102,102); font-family: Lucida Sans; font-size: 20px; font-weight: bold; " text-rendering="auto" clip-path="url(#clip-0)">5</text></g><g transform="matrix(1,0,0,1,0,0)"><text x="47" y="227.31" style="fill: rgb(102,102,102); font-family: Lucida Sans; font-size: 20px; font-weight: bold; " text-rendering="auto" clip-path="url(#clip-0)">10</text></g><g transform="matrix(1,0,0,1,0,0)"><text x="47" y="166.82" style="fill: rgb(102,102,102); font-family: Lucida Sans; font-size: 20px; font-weight: bold; " text-rendering="auto" clip-path="url(#clip-0)">15</text></g><g transform="matrix(1,0,0,1,0,0)"><text x="47" y="106.34" style="fill: rgb(102,102,102); font-family: Lucida Sans; font-size: 20px; font-weight: bold; " text-rendering="auto" clip-path="url(#clip-0)">20</text></g><g style="fill: rgb(77,117,158);fill-opacity: 1; stroke: none" transform="matrix(0,-1,1,0,-218.5,273.5)" clip-path="url(#clip-2)"><path d="M -4.8 255.28 L -4.8 252.31 Q -2 253.48 -0.02 253.48 Q 1.39 253.48 2.19 252.86 Q 2.98 252.23 2.98 251.17 Q 2.98 250.33 2.48 249.75 Q 1.98 249.17 0.58 248.38 L -0.58 247.72 Q -2.92 246.41 -3.88 245.21 Q -4.84 244.02 -4.84 242.41 Q -4.84 240.27 -3.27 238.96 Q -1.69 237.66 0.91 237.66 Q 2.98 237.66 5.58 238.25 L 5.58 241.03 Q 2.92 240.03 1.38 240.03 Q 0.17 240.03 -0.55 240.57 Q -1.27 241.11 -1.27 241.97 Q -1.27 242.69 -0.76 243.23 Q -0.25 243.77 1.14 244.55 L 2.38 245.23 Q 4.89 246.64 5.84 247.83 Q 6.78 249.02 6.78 250.72 Q 6.78 253.12 4.99 254.5 Q 3.2 255.88 0.05 255.88 Q -2.03 255.88 -4.8 255.28 M -4.8 255.28 M 19.66 255.16 Q 17.5 255.73 15.67 255.73 Q 12.58 255.73 10.8 253.92 Q 9.02 252.11 9.02 248.98 Q 9.02 245.84 10.85 244.06 Q 12.69 242.28 15.94 242.28 Q 17.5 242.28 19.56 242.78 L 19.56 245.28 Q 17.42 244.59 16.14 244.59 Q 14.59 244.59 13.64 245.79 Q 12.69 246.98 12.69 248.97 Q 12.69 251 13.71 252.22 Q 14.73 253.44 16.45 253.44 Q 18.02 253.44 19.66 252.75 L 19.66 255.16 M 19.66 255.16 M 28.58 255.73 Q 25.56 255.73 23.79 253.91 Q 22.02 252.08 22.02 249 Q 22.02 245.89 23.8 244.09 Q 25.58 242.28 28.66 242.28 Q 31.73 242.28 33.52 244.09 Q 35.31 245.89 35.31 248.98 Q 35.31 252.14 33.52 253.94 Q 31.72 255.73 28.58 255.73 M 28.58 255.73 M 28.62 253.56 Q 31.62 253.56 31.62 248.98 Q 31.62 246.88 30.83 245.66 Q 30.03 244.44 28.66 244.44 Q 27.28 244.44 26.49 245.66 Q 25.7 246.88 25.7 249 Q 25.7 251.09 26.48 252.33 Q 27.27 253.56 28.62 253.56 M 28.62 253.56 M 38.17 255.44 L 38.17 242.56 L 41.64 242.56 L 41.64 245 Q 42.98 242.28 45.73 242.28 Q 46.06 242.28 46.39 242.34 L 46.39 245.44 Q 45.64 245.17 45.02 245.17 Q 42.94 245.17 41.64 247.27 L 41.64 255.44 L 38.17 255.44 M 38.17 255.44 M 59.64 255 Q 57.17 255.73 54.95 255.73 Q 51.73 255.73 49.88 253.91 Q 48.02 252.08 48.02 248.91 Q 48.02 245.92 49.72 244.1 Q 51.42 242.28 54.22 242.28 Q 57.05 242.28 58.34 244.06 Q 59.64 245.84 59.64 249.69 L 51.67 249.69 Q 52.02 253.38 55.7 253.38 Q 57.45 253.38 59.64 252.56 L 59.64 255 M 59.64 255 M 51.62 247.73 L 56.23 247.73 Q 56.23 244.44 54.11 244.44 Q 51.95 244.44 51.62 247.73 M 51.62 247.73"/></g><line x1="79" y1="400.48" x2="1254" y2="400.48" style="stroke-width: 1.0;stroke: rgb(192,192,192);stroke-opacity: 1;" transform="matrix(1,0,0,1,0,0)" clip-path="url(#clip-3)"/><line x1="79" y1="279.51" x2="1254" y2="279.51" style="stroke-width: 1.0;stroke: rgb(192,192,192);stroke-opacity: 1;" transform="matrix(1,0,0,1,0,0)" clip-path="url(#clip-3)"/><line x1="79" y1="219.03" x2="1254" y2="219.03" style="stroke-width: 1.0;stroke: rgb(192,192,192);stroke-opacity: 1;" transform="matrix(1,0,0,1,0,0)" clip-path="url(#clip-3)"/><line x1="79" y1="158.54" x2="1254" y2="158.54" style="stroke-width: 1.0;stroke: rgb(192,192,192);stroke-opacity: 1;" transform="matrix(1,0,0,1,0,0)" clip-path="url(#clip-3)"/><line x1="79" y1="98.05" x2="1254" y2="98.05" style="stroke-width: 1.0;stroke: rgb(192,192,192);stroke-opacity: 1;" transform="matrix(1,0,0,1,0,0)" clip-path="url(#clip-3)"/><line x1="79" y1="340" x2="1254" y2="340" style="stroke-width: 0.5;stroke: rgb(134,145,156);stroke-opacity: 1;" transform="matrix(1,0,0,1,0,0)" clip-path="url(#clip-3)"/><rect x="902.07" y="255.65" width="56.04" height="84.35" style="fill: rgb(255,255,0);fill-opacity: 1" transform="matrix(1,0,0,1,0,0)" clip-path="url(#clip-3)"/><rect x="1942.86" y="340" width="56.04" height="84.35" style="fill: rgb(255,255,0);fill-opacity: 1" transform="matrix(1,0,0,1,0,0)" clip-path="url(#clip-3)"/><rect x="846.02" y="340" width="56.04" height="106.44" style="fill: rgb(0,255,0);fill-opacity: 1" transform="matrix(1,0,0,1,0,0)" clip-path="url(#clip-3)"/><rect x="1886.81" y="233.56" width="56.04" height="106.44" style="fill: rgb(0,255,0);fill-opacity: 1" transform="matrix(1,0,0,1,0,0)" clip-path="url(#clip-3)"/><rect x="789.98" y="340" width="56.04" height="7.75" style="fill: rgb(0,191,255);fill-opacity: 1" transform="matrix(1,0,0,1,0,0)" clip-path="url(#clip-3)"/><rect x="1830.77" y="332.25" width="56.04" height="7.75" style="fill: rgb(0,191,255);fill-opacity: 1" transform="matrix(1,0,0,1,0,0)" clip-path="url(#clip-3)"/><rect x="733.94" y="340" width="56.04" height="5.34" style="fill: rgb(255,0,255);fill-opacity: 1" transform="matrix(1,0,0,1,0,0)" clip-path="url(#clip-3)"/><rect x="1774.73" y="334.65" width="56.04" height="5.34" style="fill: rgb(255,0,255);fill-opacity: 1" transform="matrix(1,0,0,1,0,0)" clip-path="url(#clip-3)"/><rect x="677.89" y="340" width="56.04" height="11.73" style="fill: rgb(255,185,15);fill-opacity: 1" transform="matrix(1,0,0,1,0,0)" clip-path="url(#clip-3)"/><rect x="1718.69" y="328.27" width="56.04" height="11.73" style="fill: rgb(255,185,15);fill-opacity: 1" transform="matrix(1,0,0,1,0,0)" clip-path="url(#clip-3)"/><rect x="621.85" y="340" width="56.04" height="6.62" style="fill: rgb(0,139,0);fill-opacity: 1" transform="matrix(1,0,0,1,0,0)" clip-path="url(#clip-3)"/><rect x="1662.64" y="333.37" width="56.04" height="6.62" style="fill: rgb(0,139,0);fill-opacity: 1" transform="matrix(1,0,0,1,0,0)" clip-path="url(#clip-3)"/><rect x="565.81" y="340" width="56.04" height="50.33" style="fill: rgb(0,0,128);fill-opacity: 1" transform="matrix(1,0,0,1,0,0)" clip-path="url(#clip-3)"/><rect x="1606.6" y="289.67" width="56.04" height="50.33" style="fill: rgb(0,0,128);fill-opacity: 1" transform="matrix(1,0,0,1,0,0)" clip-path="url(#clip-3)"/><rect x="509.77" y="340" width="56.04" height="12.51" style="fill: rgb(178,34,34);fill-opacity: 1" transform="matrix(1,0,0,1,0,0)" clip-path="url(#clip-3)"/><rect x="1550.56" y="327.49" width="56.04" height="12.51" style="fill: rgb(178,34,34);fill-opacity: 1" transform="matrix(1,0,0,1,0,0)" clip-path="url(#clip-3)"/><rect x="453.72" y="317.6" width="56.04" height="22.4" style="fill: rgb(255,20,147);fill-opacity: 1" transform="matrix(1,0,0,1,0,0)" clip-path="url(#clip-3)"/><rect x="1494.52" y="340" width="56.04" height="22.4" style="fill: rgb(255,20,147);fill-opacity: 1" transform="matrix(1,0,0,1,0,0)" clip-path="url(#clip-3)"/><rect x="397.68" y="27.56" width="56.04" height="312.44" style="fill: rgb(255,215,0);fill-opacity: 1" transform="matrix(1,0,0,1,0,0)" clip-path="url(#clip-3)"/><rect x="1438.47" y="340" width="56.04" height="312.44" style="fill: rgb(255,215,0);fill-opacity: 1" transform="matrix(1,0,0,1,0,0)" clip-path="url(#clip-3)"/><rect x="341.64" y="340" width="56.04" height="38.31" style="fill: rgb(0,205,0);fill-opacity: 1" transform="matrix(1,0,0,1,0,0)" clip-path="url(#clip-3)"/><rect x="1382.43" y="301.69" width="56.04" height="38.31" style="fill: rgb(0,205,0);fill-opacity: 1" transform="matrix(1,0,0,1,0,0)" clip-path="url(#clip-3)"/><rect x="285.6" y="328.12" width="56.04" height="11.87" style="fill: rgb(0,0,255);fill-opacity: 1" transform="matrix(1,0,0,1,0,0)" clip-path="url(#clip-3)"/><rect x="1326.39" y="340" width="56.04" height="11.87" style="fill: rgb(0,0,255);fill-opacity: 1" transform="matrix(1,0,0,1,0,0)" clip-path="url(#clip-3)"/><rect x="229.55" y="272" width="56.04" height="68" style="fill: rgb(255,0,0);fill-opacity: 1" transform="matrix(1,0,0,1,0,0)" clip-path="url(#clip-3)"/><rect x="1270.35" y="340" width="56.04" height="68" style="fill: rgb(255,0,0);fill-opacity: 1" transform="matrix(1,0,0,1,0,0)" clip-path="url(#clip-3)"/><line x1="79" y1="315.8" x2="1254" y2="315.8" style="stroke-width: 0.5;stroke: rgb(255,0,0);stroke-opacity: 1;" transform="matrix(1,0,0,1,0,0)" clip-path="url(#clip-3)"/><rect x="1190" y="302.32" width="61" height="12" style="fill: rgb(100,100,100);fill-opacity: 0.392157" transform="matrix(1,0,0,1,0,0)" clip-path="url(#clip-3)"/><g transform="matrix(1,0,0,1,0,0)"><text x="1190" y="310.68" style="fill: rgb(0,0,0); font-family: sans-serif; font-size: 9px; " text-rendering="auto" clip-path="url(#clip-3)">Banality: 2.0</text></g><line x1="79" y1="364.19" x2="1254" y2="364.19" style="stroke-width: 0.5;stroke: rgb(255,0,0);stroke-opacity: 1;" transform="matrix(1,0,0,1,0,0)" clip-path="url(#clip-3)"/><rect x="1187" y="350.71" width="64" height="12" style="fill: rgb(100,100,100);fill-opacity: 0.392157" transform="matrix(1,0,0,1,0,0)" clip-path="url(#clip-3)"/><g transform="matrix(1,0,0,1,0,0)"><text x="1187" y="359.07" style="fill: rgb(0,0,0); font-family: sans-serif; font-size: 9px; " text-rendering="auto" clip-path="url(#clip-3)">Banality: -2.0</text></g></svg>
