<!DOCTYPE svg PUBLIC "-//W3C//DTD SVG 1.1//EN" "http://www.w3.org/Graphics/SVG/1.1/DTD/svg11.dtd">
<svg style="stroke-linecap:square;" xmlns="http://www.w3.org/2000/svg" xmlns:xlink="http://www.w3.org/1999/xlink" width="1036" height="615">
<defs><clipPath id="clip-0"><path d="M 0 0 L 1036 0 L 1036 615 L 0 615 L 0 0 M 0 0"/></clipPath>
<clipPath id="clip-1"><path d="M 1123.37 28.63 L 1123.37 1064.63 L 508.37 1064.63 L 508.37 28.63 L 1123.37 28.63 M 1123.37 28.63"/></clipPath>
<clipPath id="clip-2"><path d="M 325.5 280.5 L 325.5 1316.5 L -289.5 1316.5 L -289.5 280.5 L 325.5 280.5 M 325.5 280.5"/></clipPath>
<clipPath id="clip-3"><path d="M 64 42 L 64 564 L 955 564 L 955 42 M 64 42"/></clipPath>
</defs>
<rect x="0" y="0" width="1036" height="615" style="fill: rgb(255,255,255);fill-opacity: 1" transform="matrix(1,0,0,1,0,0)" clip-path="url(#clip-0)"/><g transform="matrix(1,0,0,1,0,0)"><text x="348" y="26.24" style="fill: rgb(75,75,109); font-family: Lucida Sans; font-size: 16px; font-weight: bold; " text-rendering="auto" clip-path="url(#clip-0)">[PPO, ADJ, SE, VLadj, NP, PDEL, QU, CARD]</text></g><rect x="975" y="249.5" width="51" height="148" style="fill: rgb(255,255,255);fill-opacity: 1" transform="matrix(1,0,0,1,0,0)" clip-path="url(#clip-0)"/><g style="stroke-width: 1.0;stroke: rgb(192,192,192);stroke-opacity: 1; fill: none" transform="matrix(1,0,0,1,0,0)" clip-path="url(#clip-0)"><path d="M 975 254.5 L 975 392.5 C 975 395.26 977.24 397.5 980 397.5 L 1021 397.5 C 1023.76 397.5 1026 395.26 1026 392.5 L 1026 254.5 C 1026 251.74 1023.76 249.5 1021 249.5 L 980 249.5 C 977.24 249.5 975 251.74 975 254.5 M 975 254.5"/></g><g style="fill: rgb(255,0,0);fill-opacity: 1; stroke: none" transform="matrix(1,0,0,1,0,0)" clip-path="url(#clip-0)"><path d="M 979 255.5 L 985 255.5 L 985 265.5 L 979 265.5 L 979 255.5 M 979 255.5"/></g><g transform="matrix(1,0,0,1,0,0)"><text x="989" y="263.98" style="fill: rgb(39,75,109); font-family: Lucida Sans; font-size: 11px; font-weight: bold; " text-rendering="auto" clip-path="url(#clip-0)">PPO</text></g><g style="fill: rgb(0,0,255);fill-opacity: 1; stroke: none" transform="matrix(1,0,0,1,0,0)" clip-path="url(#clip-0)"><path d="M 979 273.5 L 985 273.5 L 985 283.5 L 979 283.5 L 979 273.5 M 979 273.5"/></g><g transform="matrix(1,0,0,1,0,0)"><text x="989" y="281.98" style="fill: rgb(39,75,109); font-family: Lucida Sans; font-size: 11px; font-weight: bold; " text-rendering="auto" clip-path="url(#clip-0)">ADJ</text></g><g style="fill: rgb(0,139,0);fill-opacity: 1; stroke: none" transform="matrix(1,0,0,1,0,0)" clip-path="url(#clip-0)"><path d="M 979 291.5 L 985 291.5 L 985 301.5 L 979 301.5 L 979 291.5 M 979 291.5"/></g><g transform="matrix(1,0,0,1,0,0)"><text x="989" y="299.98" style="fill: rgb(39,75,109); font-family: Lucida Sans; font-size: 11px; font-weight: bold; " text-rendering="auto" clip-path="url(#clip-0)">SE</text></g><g style="fill: rgb(255,215,0);fill-opacity: 1; stroke: none" transform="matrix(1,0,0,1,0,0)" clip-path="url(#clip-0)"><path d="M 979 309.5 L 985 309.5 L 985 319.5 L 979 319.5 L 979 309.5 M 979 309.5"/></g><g transform="matrix(1,0,0,1,0,0)"><text x="989" y="317.98" style="fill: rgb(39,75,109); font-family: Lucida Sans; font-size: 11px; font-weight: bold; " text-rendering="auto" clip-path="url(#clip-0)">VLadj</text></g><g style="fill: rgb(255,20,147);fill-opacity: 1; stroke: none" transform="matrix(1,0,0,1,0,0)" clip-path="url(#clip-0)"><path d="M 979 327.5 L 985 327.5 L 985 337.5 L 979 337.5 L 979 327.5 M 979 327.5"/></g><g transform="matrix(1,0,0,1,0,0)"><text x="989" y="335.98" style="fill: rgb(39,75,109); font-family: Lucida Sans; font-size: 11px; font-weight: bold; " text-rendering="auto" clip-path="url(#clip-0)">NP</text></g><g style="fill: rgb(178,34,34);fill-opacity: 1; stroke: none" transform="matrix(1,0,0,1,0,0)" clip-path="url(#clip-0)"><path d="M 979 345.5 L 985 345.5 L 985 355.5 L 979 355.5 L 979 345.5 M 979 345.5"/></g><g transform="matrix(1,0,0,1,0,0)"><text x="989" y="353.98" style="fill: rgb(39,75,109); font-family: Lucida Sans; font-size: 11px; font-weight: bold; " text-rendering="auto" clip-path="url(#clip-0)">PDEL</text></g><g style="fill: rgb(0,191,255);fill-opacity: 1; stroke: none" transform="matrix(1,0,0,1,0,0)" clip-path="url(#clip-0)"><path d="M 979 363.5 L 985 363.5 L 985 373.5 L 979 373.5 L 979 363.5 M 979 363.5"/></g><g transform="matrix(1,0,0,1,0,0)"><text x="989" y="371.98" style="fill: rgb(39,75,109); font-family: Lucida Sans; font-size: 11px; font-weight: bold; " text-rendering="auto" clip-path="url(#clip-0)">QU</text></g><g style="fill: rgb(173,255,47);fill-opacity: 1; stroke: none" transform="matrix(1,0,0,1,0,0)" clip-path="url(#clip-0)"><path d="M 979 381.5 L 985 381.5 L 985 391.5 L 979 391.5 L 979 381.5 M 979 381.5"/></g><g transform="matrix(1,0,0,1,0,0)"><text x="989" y="389.98" style="fill: rgb(39,75,109); font-family: Lucida Sans; font-size: 11px; font-weight: bold; " text-rendering="auto" clip-path="url(#clip-0)">CARD</text></g><rect x="64" y="42" width="891" height="522" style="fill: rgb(255,255,255);fill-opacity: 1" transform="matrix(1,0,0,1,0,0)" clip-path="url(#clip-0)"/><line x1="64" y1="564" x2="955" y2="564" style="stroke-width: 0.5;stroke: rgb(192,208,224);stroke-opacity: 1;" transform="matrix(1,0,0,1,0,0)" clip-path="url(#clip-0)"/><g style="fill: rgb(102,102,102);fill-opacity: 1; stroke: none" transform="matrix(0,-1,1,0,-28.62738,1123.37262)" clip-path="url(#clip-1)"><path d="M 542.37 580.68 L 542.37 572.73 L 547.37 572.73 L 547.37 573.82 L 544.01 573.82 L 544.01 576.24 L 546.76 576.24 L 546.76 577.34 L 544.01 577.34 L 544.01 580.68 L 542.37 580.68 M 542.37 580.68"/></g><line x1="906.11" y1="569" x2="906.11" y2="564" style="stroke-width: 0.5;stroke: rgb(192,208,224);stroke-opacity: 1;" transform="matrix(1,0,0,1,0,0)" clip-path="url(#clip-0)"/><line x1="188.63" y1="569" x2="188.63" y2="564" style="stroke-width: 0.5;stroke: rgb(192,208,224);stroke-opacity: 1;" transform="matrix(1,0,0,1,0,0)" clip-path="url(#clip-0)"/><g transform="matrix(1,0,0,1,0,0)"><text x="494" y="598.84" style="fill: rgb(77,117,158); font-family: Lucida Sans; font-size: 15px; font-weight: bold; " text-rendering="auto" clip-path="url(#clip-0)">Part</text></g><g transform="matrix(1,0,0,1,0,0)"><text x="37" y="553.05" style="fill: rgb(102,102,102); font-family: Lucida Sans; font-size: 11px; font-weight: bold; " text-rendering="auto" clip-path="url(#clip-0)">-30</text></g><g transform="matrix(1,0,0,1,0,0)"><text x="37" y="532.28" style="fill: rgb(102,102,102); font-family: Lucida Sans; font-size: 11px; font-weight: bold; " text-rendering="auto" clip-path="url(#clip-0)">-20</text></g><g transform="matrix(1,0,0,1,0,0)"><text x="37" y="511.52" style="fill: rgb(102,102,102); font-family: Lucida Sans; font-size: 11px; font-weight: bold; " text-rendering="auto" clip-path="url(#clip-0)">-10</text></g><g transform="matrix(1,0,0,1,0,0)"><text x="51" y="490.75" style="fill: rgb(102,102,102); font-family: Lucida Sans; font-size: 11px; font-weight: bold; " text-rendering="auto" clip-path="url(#clip-0)">0</text></g><g transform="matrix(1,0,0,1,0,0)"><text x="44" y="469.99" style="fill: rgb(102,102,102); font-family: Lucida Sans; font-size: 11px; font-weight: bold; " text-rendering="auto" clip-path="url(#clip-0)">10</text></g><g transform="matrix(1,0,0,1,0,0)"><text x="44" y="449.23" style="fill: rgb(102,102,102); font-family: Lucida Sans; font-size: 11px; font-weight: bold; " text-rendering="auto" clip-path="url(#clip-0)">20</text></g><g transform="matrix(1,0,0,1,0,0)"><text x="44" y="428.46" style="fill: rgb(102,102,102); font-family: Lucida Sans; font-size: 11px; font-weight: bold; " text-rendering="auto" clip-path="url(#clip-0)">30</text></g><g transform="matrix(1,0,0,1,0,0)"><text x="44" y="407.7" style="fill: rgb(102,102,102); font-family: Lucida Sans; font-size: 11px; font-weight: bold; " text-rendering="auto" clip-path="url(#clip-0)">40</text></g><g transform="matrix(1,0,0,1,0,0)"><text x="44" y="386.94" style="fill: rgb(102,102,102); font-family: Lucida Sans; font-size: 11px; font-weight: bold; " text-rendering="auto" clip-path="url(#clip-0)">50</text></g><g transform="matrix(1,0,0,1,0,0)"><text x="44" y="366.17" style="fill: rgb(102,102,102); font-family: Lucida Sans; font-size: 11px; font-weight: bold; " text-rendering="auto" clip-path="url(#clip-0)">60</text></g><g transform="matrix(1,0,0,1,0,0)"><text x="44" y="345.41" style="fill: rgb(102,102,102); font-family: Lucida Sans; font-size: 11px; font-weight: bold; " text-rendering="auto" clip-path="url(#clip-0)">70</text></g><g transform="matrix(1,0,0,1,0,0)"><text x="44" y="324.65" style="fill: rgb(102,102,102); font-family: Lucida Sans; font-size: 11px; font-weight: bold; " text-rendering="auto" clip-path="url(#clip-0)">80</text></g><g transform="matrix(1,0,0,1,0,0)"><text x="44" y="303.88" style="fill: rgb(102,102,102); font-family: Lucida Sans; font-size: 11px; font-weight: bold; " text-rendering="auto" clip-path="url(#clip-0)">90</text></g><g transform="matrix(1,0,0,1,0,0)"><text x="37" y="283.12" style="fill: rgb(102,102,102); font-family: Lucida Sans; font-size: 11px; font-weight: bold; " text-rendering="auto" clip-path="url(#clip-0)">100</text></g><g transform="matrix(1,0,0,1,0,0)"><text x="37" y="262.35" style="fill: rgb(102,102,102); font-family: Lucida Sans; font-size: 11px; font-weight: bold; " text-rendering="auto" clip-path="url(#clip-0)">110</text></g><g transform="matrix(1,0,0,1,0,0)"><text x="37" y="241.59" style="fill: rgb(102,102,102); font-family: Lucida Sans; font-size: 11px; font-weight: bold; " text-rendering="auto" clip-path="url(#clip-0)">120</text></g><g transform="matrix(1,0,0,1,0,0)"><text x="37" y="220.83" style="fill: rgb(102,102,102); font-family: Lucida Sans; font-size: 11px; font-weight: bold; " text-rendering="auto" clip-path="url(#clip-0)">130</text></g><g transform="matrix(1,0,0,1,0,0)"><text x="37" y="200.06" style="fill: rgb(102,102,102); font-family: Lucida Sans; font-size: 11px; font-weight: bold; " text-rendering="auto" clip-path="url(#clip-0)">140</text></g><g transform="matrix(1,0,0,1,0,0)"><text x="37" y="179.3" style="fill: rgb(102,102,102); font-family: Lucida Sans; font-size: 11px; font-weight: bold; " text-rendering="auto" clip-path="url(#clip-0)">150</text></g><g transform="matrix(1,0,0,1,0,0)"><text x="37" y="158.54" style="fill: rgb(102,102,102); font-family: Lucida Sans; font-size: 11px; font-weight: bold; " text-rendering="auto" clip-path="url(#clip-0)">160</text></g><g transform="matrix(1,0,0,1,0,0)"><text x="37" y="137.77" style="fill: rgb(102,102,102); font-family: Lucida Sans; font-size: 11px; font-weight: bold; " text-rendering="auto" clip-path="url(#clip-0)">170</text></g><g transform="matrix(1,0,0,1,0,0)"><text x="37" y="117.01" style="fill: rgb(102,102,102); font-family: Lucida Sans; font-size: 11px; font-weight: bold; " text-rendering="auto" clip-path="url(#clip-0)">180</text></g><g style="fill: rgb(77,117,158);fill-opacity: 1; stroke: none" transform="matrix(0,-1,1,0,-280.5,325.5)" clip-path="url(#clip-2)"><path d="M 1.75 309.24 L 1.75 307.38 Q 3.5 308.12 4.75 308.12 Q 5.61 308.12 6.12 307.73 Q 6.62 307.34 6.62 306.66 Q 6.62 306.15 6.3 305.78 Q 5.98 305.41 5.11 304.91 L 4.39 304.52 Q 2.92 303.7 2.32 302.95 Q 1.72 302.2 1.72 301.2 Q 1.72 299.85 2.71 299.04 Q 3.7 298.23 5.31 298.23 Q 6.61 298.23 8.23 298.6 L 8.23 300.34 Q 6.58 299.71 5.61 299.71 Q 4.86 299.71 4.41 300.05 Q 3.95 300.38 3.95 300.91 Q 3.95 301.37 4.27 301.7 Q 4.59 302.04 5.45 302.54 L 6.23 302.96 Q 7.8 303.84 8.39 304.58 Q 8.98 305.32 8.98 306.38 Q 8.98 307.9 7.87 308.75 Q 6.75 309.6 4.78 309.6 Q 3.47 309.6 1.75 309.24 M 1.75 309.24 M 17.28 309.16 Q 15.94 309.52 14.8 309.52 Q 12.86 309.52 11.74 308.39 Q 10.62 307.26 10.62 305.3 Q 10.62 303.34 11.78 302.23 Q 12.94 301.12 14.95 301.12 Q 15.94 301.12 17.22 301.43 L 17.22 302.99 Q 15.89 302.55 15.09 302.55 Q 14.11 302.55 13.52 303.3 Q 12.94 304.05 12.94 305.29 Q 12.94 306.55 13.58 307.32 Q 14.22 308.09 15.28 308.09 Q 16.25 308.09 17.28 307.66 L 17.28 309.16 M 17.28 309.16 M 22.73 309.52 Q 20.84 309.52 19.73 308.38 Q 18.62 307.24 18.62 305.32 Q 18.62 303.37 19.74 302.24 Q 20.86 301.12 22.78 301.12 Q 24.7 301.12 25.82 302.24 Q 26.94 303.37 26.94 305.3 Q 26.94 307.27 25.82 308.4 Q 24.7 309.52 22.73 309.52 M 22.73 309.52 M 22.77 308.16 Q 24.64 308.16 24.64 305.3 Q 24.64 303.99 24.14 303.23 Q 23.64 302.46 22.78 302.46 Q 21.92 302.46 21.43 303.23 Q 20.94 303.99 20.94 305.32 Q 20.94 306.63 21.43 307.4 Q 21.92 308.16 22.77 308.16 M 22.77 308.16 M 29.36 309.34 L 29.36 301.29 L 31.52 301.29 L 31.52 302.8 Q 32.36 301.12 34.09 301.12 Q 34.3 301.12 34.48 301.15 L 34.48 303.09 Q 34.03 302.91 33.62 302.91 Q 32.34 302.91 31.52 304.23 L 31.52 309.34 L 29.36 309.34 M 29.36 309.34 M 42.91 309.07 Q 41.36 309.52 39.97 309.52 Q 37.95 309.52 36.79 308.38 Q 35.62 307.23 35.62 305.26 Q 35.62 303.38 36.7 302.25 Q 37.77 301.12 39.52 301.12 Q 41.28 301.12 42.09 302.23 Q 42.91 303.34 42.91 305.74 L 37.92 305.74 Q 38.14 308.04 40.44 308.04 Q 41.53 308.04 42.91 307.54 L 42.91 309.07 M 42.91 309.07 M 37.89 304.52 L 40.77 304.52 Q 40.77 302.46 39.45 302.46 Q 38.09 302.46 37.89 304.52 M 37.89 304.52"/></g><line x1="64" y1="548.37" x2="955" y2="548.37" style="stroke-width: 1.0;stroke: rgb(192,192,192);stroke-opacity: 1;" transform="matrix(1,0,0,1,0,0)" clip-path="url(#clip-3)"/><line x1="64" y1="527.6" x2="955" y2="527.6" style="stroke-width: 1.0;stroke: rgb(192,192,192);stroke-opacity: 1;" transform="matrix(1,0,0,1,0,0)" clip-path="url(#clip-3)"/><line x1="64" y1="506.84" x2="955" y2="506.84" style="stroke-width: 1.0;stroke: rgb(192,192,192);stroke-opacity: 1;" transform="matrix(1,0,0,1,0,0)" clip-path="url(#clip-3)"/><line x1="64" y1="465.31" x2="955" y2="465.31" style="stroke-width: 1.0;stroke: rgb(192,192,192);stroke-opacity: 1;" transform="matrix(1,0,0,1,0,0)" clip-path="url(#clip-3)"/><line x1="64" y1="444.55" x2="955" y2="444.55" style="stroke-width: 1.0;stroke: rgb(192,192,192);stroke-opacity: 1;" transform="matrix(1,0,0,1,0,0)" clip-path="url(#clip-3)"/><line x1="64" y1="423.78" x2="955" y2="423.78" style="stroke-width: 1.0;stroke: rgb(192,192,192);stroke-opacity: 1;" transform="matrix(1,0,0,1,0,0)" clip-path="url(#clip-3)"/><line x1="64" y1="403.02" x2="955" y2="403.02" style="stroke-width: 1.0;stroke: rgb(192,192,192);stroke-opacity: 1;" transform="matrix(1,0,0,1,0,0)" clip-path="url(#clip-3)"/><line x1="64" y1="382.26" x2="955" y2="382.26" style="stroke-width: 1.0;stroke: rgb(192,192,192);stroke-opacity: 1;" transform="matrix(1,0,0,1,0,0)" clip-path="url(#clip-3)"/><line x1="64" y1="361.49" x2="955" y2="361.49" style="stroke-width: 1.0;stroke: rgb(192,192,192);stroke-opacity: 1;" transform="matrix(1,0,0,1,0,0)" clip-path="url(#clip-3)"/><line x1="64" y1="340.73" x2="955" y2="340.73" style="stroke-width: 1.0;stroke: rgb(192,192,192);stroke-opacity: 1;" transform="matrix(1,0,0,1,0,0)" clip-path="url(#clip-3)"/><line x1="64" y1="319.97" x2="955" y2="319.97" style="stroke-width: 1.0;stroke: rgb(192,192,192);stroke-opacity: 1;" transform="matrix(1,0,0,1,0,0)" clip-path="url(#clip-3)"/><line x1="64" y1="299.2" x2="955" y2="299.2" style="stroke-width: 1.0;stroke: rgb(192,192,192);stroke-opacity: 1;" transform="matrix(1,0,0,1,0,0)" clip-path="url(#clip-3)"/><line x1="64" y1="278.44" x2="955" y2="278.44" style="stroke-width: 1.0;stroke: rgb(192,192,192);stroke-opacity: 1;" transform="matrix(1,0,0,1,0,0)" clip-path="url(#clip-3)"/><line x1="64" y1="257.67" x2="955" y2="257.67" style="stroke-width: 1.0;stroke: rgb(192,192,192);stroke-opacity: 1;" transform="matrix(1,0,0,1,0,0)" clip-path="url(#clip-3)"/><line x1="64" y1="236.91" x2="955" y2="236.91" style="stroke-width: 1.0;stroke: rgb(192,192,192);stroke-opacity: 1;" transform="matrix(1,0,0,1,0,0)" clip-path="url(#clip-3)"/><line x1="64" y1="216.15" x2="955" y2="216.15" style="stroke-width: 1.0;stroke: rgb(192,192,192);stroke-opacity: 1;" transform="matrix(1,0,0,1,0,0)" clip-path="url(#clip-3)"/><line x1="64" y1="195.38" x2="955" y2="195.38" style="stroke-width: 1.0;stroke: rgb(192,192,192);stroke-opacity: 1;" transform="matrix(1,0,0,1,0,0)" clip-path="url(#clip-3)"/><line x1="64" y1="174.62" x2="955" y2="174.62" style="stroke-width: 1.0;stroke: rgb(192,192,192);stroke-opacity: 1;" transform="matrix(1,0,0,1,0,0)" clip-path="url(#clip-3)"/><line x1="64" y1="153.86" x2="955" y2="153.86" style="stroke-width: 1.0;stroke: rgb(192,192,192);stroke-opacity: 1;" transform="matrix(1,0,0,1,0,0)" clip-path="url(#clip-3)"/><line x1="64" y1="133.09" x2="955" y2="133.09" style="stroke-width: 1.0;stroke: rgb(192,192,192);stroke-opacity: 1;" transform="matrix(1,0,0,1,0,0)" clip-path="url(#clip-3)"/><line x1="64" y1="112.33" x2="955" y2="112.33" style="stroke-width: 1.0;stroke: rgb(192,192,192);stroke-opacity: 1;" transform="matrix(1,0,0,1,0,0)" clip-path="url(#clip-3)"/><line x1="64" y1="486.07" x2="955" y2="486.07" style="stroke-width: 0.5;stroke: rgb(134,145,156);stroke-opacity: 1;" transform="matrix(1,0,0,1,0,0)" clip-path="url(#clip-3)"/><rect x="735.71" y="486.07" width="62.78" height="197.37" style="fill: rgb(173,255,47);fill-opacity: 1" transform="matrix(1,0,0,1,0,0)" clip-path="url(#clip-3)"/><rect x="1453.19" y="288.71" width="62.78" height="197.37" style="fill: rgb(173,255,47);fill-opacity: 1" transform="matrix(1,0,0,1,0,0)" clip-path="url(#clip-3)"/><rect x="672.93" y="486.07" width="62.78" height="107.22" style="fill: rgb(0,191,255);fill-opacity: 1" transform="matrix(1,0,0,1,0,0)" clip-path="url(#clip-3)"/><rect x="1390.41" y="378.86" width="62.78" height="107.22" style="fill: rgb(0,191,255);fill-opacity: 1" transform="matrix(1,0,0,1,0,0)" clip-path="url(#clip-3)"/><rect x="610.15" y="486.07" width="62.78" height="65.43" style="fill: rgb(178,34,34);fill-opacity: 1" transform="matrix(1,0,0,1,0,0)" clip-path="url(#clip-3)"/><rect x="1327.63" y="420.64" width="62.78" height="65.43" style="fill: rgb(178,34,34);fill-opacity: 1" transform="matrix(1,0,0,1,0,0)" clip-path="url(#clip-3)"/><rect x="547.37" y="486.07" width="62.78" height="54.86" style="fill: rgb(255,20,147);fill-opacity: 1" transform="matrix(1,0,0,1,0,0)" clip-path="url(#clip-3)"/><rect x="1264.85" y="431.21" width="62.78" height="54.86" style="fill: rgb(255,20,147);fill-opacity: 1" transform="matrix(1,0,0,1,0,0)" clip-path="url(#clip-3)"/><rect x="484.59" y="437" width="62.78" height="49.08" style="fill: rgb(255,215,0);fill-opacity: 1" transform="matrix(1,0,0,1,0,0)" clip-path="url(#clip-3)"/><rect x="1202.08" y="486.07" width="62.78" height="49.08" style="fill: rgb(255,215,0);fill-opacity: 1" transform="matrix(1,0,0,1,0,0)" clip-path="url(#clip-3)"/><rect x="421.81" y="424.31" width="62.78" height="61.76" style="fill: rgb(0,139,0);fill-opacity: 1" transform="matrix(1,0,0,1,0,0)" clip-path="url(#clip-3)"/><rect x="1139.3" y="486.07" width="62.78" height="61.76" style="fill: rgb(0,139,0);fill-opacity: 1" transform="matrix(1,0,0,1,0,0)" clip-path="url(#clip-3)"/><rect x="359.03" y="257.93" width="62.78" height="228.15" style="fill: rgb(0,0,255);fill-opacity: 1" transform="matrix(1,0,0,1,0,0)" clip-path="url(#clip-3)"/><rect x="1076.52" y="486.07" width="62.78" height="228.15" style="fill: rgb(0,0,255);fill-opacity: 1" transform="matrix(1,0,0,1,0,0)" clip-path="url(#clip-3)"/><rect x="296.25" y="103.94" width="62.78" height="382.13" style="fill: rgb(255,0,0);fill-opacity: 1" transform="matrix(1,0,0,1,0,0)" clip-path="url(#clip-3)"/><rect x="1013.74" y="486.07" width="62.78" height="382.13" style="fill: rgb(255,0,0);fill-opacity: 1" transform="matrix(1,0,0,1,0,0)" clip-path="url(#clip-3)"/><line x1="64" y1="481.92" x2="955" y2="481.92" style="stroke-width: 0.5;stroke: rgb(255,0,0);stroke-opacity: 1;" transform="matrix(1,0,0,1,0,0)" clip-path="url(#clip-3)"/><rect x="891" y="468.45" width="61" height="12" style="fill: rgb(100,100,100);fill-opacity: 0.392157" transform="matrix(1,0,0,1,0,0)" clip-path="url(#clip-3)"/><g transform="matrix(1,0,0,1,0,0)"><text x="891" y="476.8" style="fill: rgb(0,0,0); font-family: sans-serif; font-size: 9px; " text-rendering="auto" clip-path="url(#clip-3)">Banality: 2.0</text></g><line x1="64" y1="490.23" x2="955" y2="490.23" style="stroke-width: 0.5;stroke: rgb(255,0,0);stroke-opacity: 1;" transform="matrix(1,0,0,1,0,0)" clip-path="url(#clip-3)"/><rect x="888" y="476.75" width="64" height="12" style="fill: rgb(100,100,100);fill-opacity: 0.392157" transform="matrix(1,0,0,1,0,0)" clip-path="url(#clip-3)"/><g transform="matrix(1,0,0,1,0,0)"><text x="888" y="485.1" style="fill: rgb(0,0,0); font-family: sans-serif; font-size: 9px; " text-rendering="auto" clip-path="url(#clip-3)">Banality: -2.0</text></g></svg>
