<!DOCTYPE svg PUBLIC "-//W3C//DTD SVG 1.1//EN" "http://www.w3.org/Graphics/SVG/1.1/DTD/svg11.dtd">
<svg style="stroke-linecap:square;" xmlns="http://www.w3.org/2000/svg" xmlns:xlink="http://www.w3.org/1999/xlink" width="1558" height="506">
<defs><clipPath id="clip-0"><path d="M 0 0 L 1558 0 L 1558 506 L 0 506 L 0 0 M 0 0"/></clipPath>
<clipPath id="clip-1"><path d="M 1222.15 -288.15 L 1222.15 1269.85 L 716.15 1269.85 L 716.15 -288.15 L 1222.15 -288.15 M 1222.15 -288.15"/></clipPath>
<clipPath id="clip-2"><path d="M 271 226 L 271 1784 L -235 1784 L -235 226 L 271 226 M 271 226"/></clipPath>
<clipPath id="clip-3"><path d="M 64 42 L 64 455 L 1480 455 L 1480 42 M 64 42"/></clipPath>
</defs>
<rect x="0" y="0" width="1558" height="506" style="fill: rgb(255,255,255);fill-opacity: 1" transform="matrix(1,0,0,1,0,0)" clip-path="url(#clip-0)"/><g transform="matrix(1,0,0,1,0,0)"><text x="731" y="26.24" style="fill: rgb(75,75,109); font-family: Lucida Sans; font-size: 16px; font-weight: bold; " text-rendering="auto" clip-path="url(#clip-0)">[usted, vos]</text></g><rect x="1500" y="249" width="48" height="40" style="fill: rgb(255,255,255);fill-opacity: 1" transform="matrix(1,0,0,1,0,0)" clip-path="url(#clip-0)"/><g style="stroke-width: 1.0;stroke: rgb(192,192,192);stroke-opacity: 1; fill: none" transform="matrix(1,0,0,1,0,0)" clip-path="url(#clip-0)"><path d="M 1500 254 L 1500 284 C 1500 286.76 1502.24 289 1505 289 L 1543 289 C 1545.76 289 1548 286.76 1548 284 L 1548 254 C 1548 251.24 1545.76 249 1543 249 L 1505 249 C 1502.24 249 1500 251.24 1500 254 M 1500 254"/></g><g style="fill: rgb(1,1,1);fill-opacity: 1; stroke: none" transform="matrix(1,0,0,1,0,0)" clip-path="url(#clip-0)"><path d="M 1504 255 L 1510 255 L 1510 265 L 1504 265 L 1504 255 M 1504 255"/></g><g transform="matrix(1,0,0,1,0,0)"><text x="1514" y="263.48" style="fill: rgb(39,75,109); font-family: Lucida Sans; font-size: 11px; font-weight: bold; " text-rendering="auto" clip-path="url(#clip-0)">usted</text></g><g style="fill: rgb(127,127,127);fill-opacity: 1; stroke: none" transform="matrix(1,0,0,1,0,0)" clip-path="url(#clip-0)"><path d="M 1504 273 L 1510 273 L 1510 283 L 1504 283 L 1504 273 M 1504 273"/></g><g transform="matrix(1,0,0,1,0,0)"><text x="1514" y="281.48" style="fill: rgb(39,75,109); font-family: Lucida Sans; font-size: 11px; font-weight: bold; " text-rendering="auto" clip-path="url(#clip-0)">vos</text></g><rect x="64" y="42" width="1416" height="413" style="fill: rgb(255,255,255);fill-opacity: 1" transform="matrix(1,0,0,1,0,0)" clip-path="url(#clip-0)"/><line x1="64" y1="455" x2="1480" y2="455" style="stroke-width: 0.5;stroke: rgb(192,208,224);stroke-opacity: 1;" transform="matrix(1,0,0,1,0,0)" clip-path="url(#clip-0)"/><g style="fill: rgb(102,102,102);fill-opacity: 1; stroke: none" transform="matrix(0,-1,1,0,288.154236,1222.154236)" clip-path="url(#clip-1)"><path d="M 750.15 471.68 L 750.15 463.73 L 755.15 463.73 L 755.15 464.82 L 751.79 464.82 L 751.79 467.24 L 754.54 467.24 L 754.54 468.34 L 751.79 468.34 L 751.79 471.68 L 750.15 471.68 M 750.15 471.68"/></g><line x1="1673.34" y1="460" x2="1673.34" y2="455" style="stroke-width: 0.5;stroke: rgb(192,208,224);stroke-opacity: 1;" transform="matrix(1,0,0,1,0,0)" clip-path="url(#clip-0)"/><g transform="matrix(1,0,0,1,0,0)"><text x="756.5" y="489.84" style="fill: rgb(77,117,158); font-family: Lucida Sans; font-size: 15px; font-weight: bold; " text-rendering="auto" clip-path="url(#clip-0)">Part</text></g><g transform="matrix(1,0,0,1,0,0)"><text x="37" y="446.33" style="fill: rgb(102,102,102); font-family: Lucida Sans; font-size: 11px; font-weight: bold; " text-rendering="auto" clip-path="url(#clip-0)">-20</text></g><g transform="matrix(1,0,0,1,0,0)"><text x="37" y="429.18" style="fill: rgb(102,102,102); font-family: Lucida Sans; font-size: 11px; font-weight: bold; " text-rendering="auto" clip-path="url(#clip-0)">-10</text></g><g transform="matrix(1,0,0,1,0,0)"><text x="51" y="412.02" style="fill: rgb(102,102,102); font-family: Lucida Sans; font-size: 11px; font-weight: bold; " text-rendering="auto" clip-path="url(#clip-0)">0</text></g><g transform="matrix(1,0,0,1,0,0)"><text x="44" y="394.86" style="fill: rgb(102,102,102); font-family: Lucida Sans; font-size: 11px; font-weight: bold; " text-rendering="auto" clip-path="url(#clip-0)">10</text></g><g transform="matrix(1,0,0,1,0,0)"><text x="44" y="377.71" style="fill: rgb(102,102,102); font-family: Lucida Sans; font-size: 11px; font-weight: bold; " text-rendering="auto" clip-path="url(#clip-0)">20</text></g><g transform="matrix(1,0,0,1,0,0)"><text x="44" y="360.55" style="fill: rgb(102,102,102); font-family: Lucida Sans; font-size: 11px; font-weight: bold; " text-rendering="auto" clip-path="url(#clip-0)">30</text></g><g transform="matrix(1,0,0,1,0,0)"><text x="44" y="343.4" style="fill: rgb(102,102,102); font-family: Lucida Sans; font-size: 11px; font-weight: bold; " text-rendering="auto" clip-path="url(#clip-0)">40</text></g><g transform="matrix(1,0,0,1,0,0)"><text x="44" y="326.24" style="fill: rgb(102,102,102); font-family: Lucida Sans; font-size: 11px; font-weight: bold; " text-rendering="auto" clip-path="url(#clip-0)">50</text></g><g transform="matrix(1,0,0,1,0,0)"><text x="44" y="309.08" style="fill: rgb(102,102,102); font-family: Lucida Sans; font-size: 11px; font-weight: bold; " text-rendering="auto" clip-path="url(#clip-0)">60</text></g><g transform="matrix(1,0,0,1,0,0)"><text x="44" y="291.93" style="fill: rgb(102,102,102); font-family: Lucida Sans; font-size: 11px; font-weight: bold; " text-rendering="auto" clip-path="url(#clip-0)">70</text></g><g transform="matrix(1,0,0,1,0,0)"><text x="44" y="274.77" style="fill: rgb(102,102,102); font-family: Lucida Sans; font-size: 11px; font-weight: bold; " text-rendering="auto" clip-path="url(#clip-0)">80</text></g><g transform="matrix(1,0,0,1,0,0)"><text x="44" y="257.62" style="fill: rgb(102,102,102); font-family: Lucida Sans; font-size: 11px; font-weight: bold; " text-rendering="auto" clip-path="url(#clip-0)">90</text></g><g transform="matrix(1,0,0,1,0,0)"><text x="37" y="240.46" style="fill: rgb(102,102,102); font-family: Lucida Sans; font-size: 11px; font-weight: bold; " text-rendering="auto" clip-path="url(#clip-0)">100</text></g><g transform="matrix(1,0,0,1,0,0)"><text x="37" y="223.31" style="fill: rgb(102,102,102); font-family: Lucida Sans; font-size: 11px; font-weight: bold; " text-rendering="auto" clip-path="url(#clip-0)">110</text></g><g transform="matrix(1,0,0,1,0,0)"><text x="37" y="206.15" style="fill: rgb(102,102,102); font-family: Lucida Sans; font-size: 11px; font-weight: bold; " text-rendering="auto" clip-path="url(#clip-0)">120</text></g><g transform="matrix(1,0,0,1,0,0)"><text x="37" y="188.99" style="fill: rgb(102,102,102); font-family: Lucida Sans; font-size: 11px; font-weight: bold; " text-rendering="auto" clip-path="url(#clip-0)">130</text></g><g transform="matrix(1,0,0,1,0,0)"><text x="37" y="171.84" style="fill: rgb(102,102,102); font-family: Lucida Sans; font-size: 11px; font-weight: bold; " text-rendering="auto" clip-path="url(#clip-0)">140</text></g><g transform="matrix(1,0,0,1,0,0)"><text x="37" y="154.68" style="fill: rgb(102,102,102); font-family: Lucida Sans; font-size: 11px; font-weight: bold; " text-rendering="auto" clip-path="url(#clip-0)">150</text></g><g transform="matrix(1,0,0,1,0,0)"><text x="37" y="137.53" style="fill: rgb(102,102,102); font-family: Lucida Sans; font-size: 11px; font-weight: bold; " text-rendering="auto" clip-path="url(#clip-0)">160</text></g><g transform="matrix(1,0,0,1,0,0)"><text x="37" y="120.37" style="fill: rgb(102,102,102); font-family: Lucida Sans; font-size: 11px; font-weight: bold; " text-rendering="auto" clip-path="url(#clip-0)">170</text></g><g transform="matrix(1,0,0,1,0,0)"><text x="37" y="103.21" style="fill: rgb(102,102,102); font-family: Lucida Sans; font-size: 11px; font-weight: bold; " text-rendering="auto" clip-path="url(#clip-0)">180</text></g><g transform="matrix(1,0,0,1,0,0)"><text x="37" y="86.06" style="fill: rgb(102,102,102); font-family: Lucida Sans; font-size: 11px; font-weight: bold; " text-rendering="auto" clip-path="url(#clip-0)">190</text></g><g transform="matrix(1,0,0,1,0,0)"><text x="37" y="68.9" style="fill: rgb(102,102,102); font-family: Lucida Sans; font-size: 11px; font-weight: bold; " text-rendering="auto" clip-path="url(#clip-0)">200</text></g><g transform="matrix(1,0,0,1,0,0)"><text x="37" y="51.75" style="fill: rgb(102,102,102); font-family: Lucida Sans; font-size: 11px; font-weight: bold; " text-rendering="auto" clip-path="url(#clip-0)">210</text></g><g style="fill: rgb(77,117,158);fill-opacity: 1; stroke: none" transform="matrix(0,-1,1,0,-226,271)" clip-path="url(#clip-2)"><path d="M 1.75 254.74 L 1.75 252.88 Q 3.5 253.62 4.75 253.62 Q 5.61 253.62 6.12 253.23 Q 6.62 252.84 6.62 252.16 Q 6.62 251.65 6.3 251.28 Q 5.98 250.91 5.11 250.41 L 4.39 250.02 Q 2.92 249.2 2.32 248.45 Q 1.72 247.7 1.72 246.7 Q 1.72 245.35 2.71 244.54 Q 3.7 243.73 5.31 243.73 Q 6.61 243.73 8.23 244.1 L 8.23 245.84 Q 6.58 245.21 5.61 245.21 Q 4.86 245.21 4.41 245.55 Q 3.95 245.88 3.95 246.41 Q 3.95 246.87 4.27 247.2 Q 4.59 247.54 5.45 248.04 L 6.23 248.46 Q 7.8 249.34 8.39 250.08 Q 8.98 250.82 8.98 251.88 Q 8.98 253.4 7.87 254.25 Q 6.75 255.1 4.78 255.1 Q 3.47 255.1 1.75 254.74 M 1.75 254.74 M 17.28 254.66 Q 15.94 255.02 14.8 255.02 Q 12.86 255.02 11.74 253.89 Q 10.62 252.76 10.62 250.8 Q 10.62 248.84 11.78 247.73 Q 12.94 246.62 14.95 246.62 Q 15.94 246.62 17.22 246.93 L 17.22 248.49 Q 15.89 248.05 15.09 248.05 Q 14.11 248.05 13.52 248.8 Q 12.94 249.55 12.94 250.79 Q 12.94 252.05 13.58 252.82 Q 14.22 253.59 15.28 253.59 Q 16.25 253.59 17.28 253.16 L 17.28 254.66 M 17.28 254.66 M 22.73 255.02 Q 20.84 255.02 19.73 253.88 Q 18.62 252.74 18.62 250.82 Q 18.62 248.87 19.74 247.74 Q 20.86 246.62 22.78 246.62 Q 24.7 246.62 25.82 247.74 Q 26.94 248.87 26.94 250.8 Q 26.94 252.77 25.82 253.9 Q 24.7 255.02 22.73 255.02 M 22.73 255.02 M 22.77 253.66 Q 24.64 253.66 24.64 250.8 Q 24.64 249.49 24.14 248.73 Q 23.64 247.96 22.78 247.96 Q 21.92 247.96 21.43 248.73 Q 20.94 249.49 20.94 250.82 Q 20.94 252.13 21.43 252.9 Q 21.92 253.66 22.77 253.66 M 22.77 253.66 M 29.36 254.84 L 29.36 246.79 L 31.52 246.79 L 31.52 248.3 Q 32.36 246.62 34.09 246.62 Q 34.3 246.62 34.48 246.65 L 34.48 248.59 Q 34.03 248.41 33.62 248.41 Q 32.34 248.41 31.52 249.73 L 31.52 254.84 L 29.36 254.84 M 29.36 254.84 M 42.91 254.57 Q 41.36 255.02 39.97 255.02 Q 37.95 255.02 36.79 253.88 Q 35.62 252.73 35.62 250.76 Q 35.62 248.88 36.7 247.75 Q 37.77 246.62 39.52 246.62 Q 41.28 246.62 42.09 247.73 Q 42.91 248.84 42.91 251.24 L 37.92 251.24 Q 38.14 253.54 40.44 253.54 Q 41.53 253.54 42.91 253.04 L 42.91 254.57 M 42.91 254.57 M 37.89 250.02 L 40.77 250.02 Q 40.77 247.96 39.45 247.96 Q 38.09 247.96 37.89 250.02 M 37.89 250.02"/></g><line x1="64" y1="441.65" x2="1480" y2="441.65" style="stroke-width: 1.0;stroke: rgb(192,192,192);stroke-opacity: 1;" transform="matrix(1,0,0,1,0,0)" clip-path="url(#clip-3)"/><line x1="64" y1="424.5" x2="1480" y2="424.5" style="stroke-width: 1.0;stroke: rgb(192,192,192);stroke-opacity: 1;" transform="matrix(1,0,0,1,0,0)" clip-path="url(#clip-3)"/><line x1="64" y1="390.18" x2="1480" y2="390.18" style="stroke-width: 1.0;stroke: rgb(192,192,192);stroke-opacity: 1;" transform="matrix(1,0,0,1,0,0)" clip-path="url(#clip-3)"/><line x1="64" y1="373.03" x2="1480" y2="373.03" style="stroke-width: 1.0;stroke: rgb(192,192,192);stroke-opacity: 1;" transform="matrix(1,0,0,1,0,0)" clip-path="url(#clip-3)"/><line x1="64" y1="355.87" x2="1480" y2="355.87" style="stroke-width: 1.0;stroke: rgb(192,192,192);stroke-opacity: 1;" transform="matrix(1,0,0,1,0,0)" clip-path="url(#clip-3)"/><line x1="64" y1="338.72" x2="1480" y2="338.72" style="stroke-width: 1.0;stroke: rgb(192,192,192);stroke-opacity: 1;" transform="matrix(1,0,0,1,0,0)" clip-path="url(#clip-3)"/><line x1="64" y1="321.56" x2="1480" y2="321.56" style="stroke-width: 1.0;stroke: rgb(192,192,192);stroke-opacity: 1;" transform="matrix(1,0,0,1,0,0)" clip-path="url(#clip-3)"/><line x1="64" y1="304.41" x2="1480" y2="304.41" style="stroke-width: 1.0;stroke: rgb(192,192,192);stroke-opacity: 1;" transform="matrix(1,0,0,1,0,0)" clip-path="url(#clip-3)"/><line x1="64" y1="287.25" x2="1480" y2="287.25" style="stroke-width: 1.0;stroke: rgb(192,192,192);stroke-opacity: 1;" transform="matrix(1,0,0,1,0,0)" clip-path="url(#clip-3)"/><line x1="64" y1="270.09" x2="1480" y2="270.09" style="stroke-width: 1.0;stroke: rgb(192,192,192);stroke-opacity: 1;" transform="matrix(1,0,0,1,0,0)" clip-path="url(#clip-3)"/><line x1="64" y1="252.94" x2="1480" y2="252.94" style="stroke-width: 1.0;stroke: rgb(192,192,192);stroke-opacity: 1;" transform="matrix(1,0,0,1,0,0)" clip-path="url(#clip-3)"/><line x1="64" y1="235.78" x2="1480" y2="235.78" style="stroke-width: 1.0;stroke: rgb(192,192,192);stroke-opacity: 1;" transform="matrix(1,0,0,1,0,0)" clip-path="url(#clip-3)"/><line x1="64" y1="218.63" x2="1480" y2="218.63" style="stroke-width: 1.0;stroke: rgb(192,192,192);stroke-opacity: 1;" transform="matrix(1,0,0,1,0,0)" clip-path="url(#clip-3)"/><line x1="64" y1="201.47" x2="1480" y2="201.47" style="stroke-width: 1.0;stroke: rgb(192,192,192);stroke-opacity: 1;" transform="matrix(1,0,0,1,0,0)" clip-path="url(#clip-3)"/><line x1="64" y1="184.31" x2="1480" y2="184.31" style="stroke-width: 1.0;stroke: rgb(192,192,192);stroke-opacity: 1;" transform="matrix(1,0,0,1,0,0)" clip-path="url(#clip-3)"/><line x1="64" y1="167.16" x2="1480" y2="167.16" style="stroke-width: 1.0;stroke: rgb(192,192,192);stroke-opacity: 1;" transform="matrix(1,0,0,1,0,0)" clip-path="url(#clip-3)"/><line x1="64" y1="150" x2="1480" y2="150" style="stroke-width: 1.0;stroke: rgb(192,192,192);stroke-opacity: 1;" transform="matrix(1,0,0,1,0,0)" clip-path="url(#clip-3)"/><line x1="64" y1="132.85" x2="1480" y2="132.85" style="stroke-width: 1.0;stroke: rgb(192,192,192);stroke-opacity: 1;" transform="matrix(1,0,0,1,0,0)" clip-path="url(#clip-3)"/><line x1="64" y1="115.69" x2="1480" y2="115.69" style="stroke-width: 1.0;stroke: rgb(192,192,192);stroke-opacity: 1;" transform="matrix(1,0,0,1,0,0)" clip-path="url(#clip-3)"/><line x1="64" y1="98.53" x2="1480" y2="98.53" style="stroke-width: 1.0;stroke: rgb(192,192,192);stroke-opacity: 1;" transform="matrix(1,0,0,1,0,0)" clip-path="url(#clip-3)"/><line x1="64" y1="81.38" x2="1480" y2="81.38" style="stroke-width: 1.0;stroke: rgb(192,192,192);stroke-opacity: 1;" transform="matrix(1,0,0,1,0,0)" clip-path="url(#clip-3)"/><line x1="64" y1="64.22" x2="1480" y2="64.22" style="stroke-width: 1.0;stroke: rgb(192,192,192);stroke-opacity: 1;" transform="matrix(1,0,0,1,0,0)" clip-path="url(#clip-3)"/><line x1="64" y1="47.07" x2="1480" y2="47.07" style="stroke-width: 1.0;stroke: rgb(192,192,192);stroke-opacity: 1;" transform="matrix(1,0,0,1,0,0)" clip-path="url(#clip-3)"/><line x1="64" y1="407.34" x2="1480" y2="407.34" style="stroke-width: 0.5;stroke: rgb(134,145,156);stroke-opacity: 1;" transform="matrix(1,0,0,1,0,0)" clip-path="url(#clip-3)"/><rect x="755.15" y="407.34" width="642.73" height="8.7" style="fill: rgb(127,127,127);fill-opacity: 1" transform="matrix(1,0,0,1,0,0)" clip-path="url(#clip-3)"/><rect x="2591.52" y="398.64" width="642.73" height="8.7" style="fill: rgb(127,127,127);fill-opacity: 1" transform="matrix(1,0,0,1,0,0)" clip-path="url(#clip-3)"/><rect x="112.42" y="-79.58" width="642.73" height="486.92" style="fill: rgb(1,1,1);fill-opacity: 1" transform="matrix(1,0,0,1,0,0)" clip-path="url(#clip-3)"/><rect x="1948.79" y="407.34" width="642.73" height="486.92" style="fill: rgb(1,1,1);fill-opacity: 1" transform="matrix(1,0,0,1,0,0)" clip-path="url(#clip-3)"/><line x1="64" y1="403.91" x2="1480" y2="403.91" style="stroke-width: 0.5;stroke: rgb(255,0,0);stroke-opacity: 1;" transform="matrix(1,0,0,1,0,0)" clip-path="url(#clip-3)"/><rect x="1416" y="390.43" width="61" height="12" style="fill: rgb(100,100,100);fill-opacity: 0.392157" transform="matrix(1,0,0,1,0,0)" clip-path="url(#clip-3)"/><g transform="matrix(1,0,0,1,0,0)"><text x="1416" y="398.79" style="fill: rgb(0,0,0); font-family: sans-serif; font-size: 9px; " text-rendering="auto" clip-path="url(#clip-3)">Banality: 2.0</text></g><line x1="64" y1="410.77" x2="1480" y2="410.77" style="stroke-width: 0.5;stroke: rgb(255,0,0);stroke-opacity: 1;" transform="matrix(1,0,0,1,0,0)" clip-path="url(#clip-3)"/><rect x="1413" y="397.3" width="64" height="12" style="fill: rgb(100,100,100);fill-opacity: 0.392157" transform="matrix(1,0,0,1,0,0)" clip-path="url(#clip-3)"/><g transform="matrix(1,0,0,1,0,0)"><text x="1413" y="405.65" style="fill: rgb(0,0,0); font-family: sans-serif; font-size: 9px; " text-rendering="auto" clip-path="url(#clip-3)">Banality: -2.0</text></g></svg>
